<svg id="Capa_1" enable-background="new 0 0 512 512" height="512" viewBox="0 0 512 512" width="512" xmlns="http://www.w3.org/2000/svg"><g><g><path d="m79.716 99.368h352.539c12.655 0 20.215 7.43 23.068 14.383 3.252 7.921 1.566 16.232-4.511 22.233-4.536 4.48-10.944 6.628-16.728 5.608-6.12-1.08-11.2-5.546-14.689-12.916-1.771-3.744-6.246-5.343-9.987-3.569-3.744 1.772-5.342 6.245-3.569 9.988 5.578 11.782 14.684 19.335 25.64 21.269 10.646 1.877 21.817-1.75 29.874-9.708 10.399-10.27 13.406-25.061 7.848-38.603-5.998-14.61-20.154-23.686-36.945-23.686h-352.54c-16.791 0-30.947 9.076-36.945 23.687-5.559 13.542-2.552 28.333 7.847 38.602 6.657 6.575 15.437 10.195 24.293 10.195 1.863 0 3.73-.16 5.582-.487 10.956-1.934 20.062-9.487 25.64-21.269 1.772-3.744.174-8.216-3.569-9.988-3.743-1.771-8.216-.174-9.988 3.569-3.489 7.37-8.569 11.836-14.689 12.916-5.782 1.021-12.191-1.128-16.728-5.608-6.076-6-7.762-14.312-4.511-22.233 2.854-6.954 10.413-14.383 23.068-14.383z"/><path d="m438.758 49.073v-23.702c0-13.99-11.395-25.371-25.4-25.371h-314.745c-14.005 0-25.399 11.381-25.399 25.371v23.702c-39.198 1.594-70.599 33.966-70.599 73.549 0 19.319 8.189 37.842 23.058 52.158 14.171 13.644 32.602 21.468 50.566 21.468 7.026 0 13.694-.803 19.947-2.359v3.723c0 18.354 13.1 33.702 30.44 37.193v269.695c0 4.142 3.358 7.5 7.5 7.5s7.5-3.358 7.5-7.5v-229.984h45.937v229.984c0 4.142 3.358 7.5 7.5 7.5s7.5-3.358 7.5-7.5v-229.984h45.937v229.984c0 4.142 3.358 7.5 7.5 7.5 4.143 0 7.5-3.358 7.5-7.5v-229.984h45.937v229.984c0 4.142 3.357 7.5 7.5 7.5s7.5-3.358 7.5-7.5v-229.984h45.938v229.984c0 4.142 3.357 7.5 7.5 7.5s7.5-3.358 7.5-7.5v-269.696c17.324-3.493 30.411-18.841 30.411-37.192v-3.723c6.254 1.556 12.921 2.359 19.947 2.359 17.966 0 36.4-7.824 50.579-21.467 14.88-14.317 23.074-32.841 23.074-52.159-.001-39.583-31.415-71.956-70.628-73.549zm-350.544-23.702c0-5.719 4.665-10.371 10.399-10.371h314.746c5.734 0 10.399 4.652 10.399 10.371v23.625h-335.544zm347.518 155.877c-36.55 0-50.472-24.903-55.518-39.748-1.033-3.041-3.889-5.086-7.101-5.086h-99.528c-4.143 0-7.5 3.358-7.5 7.5s3.357 7.5 7.5 7.5h94.328c6.895 16.856 18.231 29.422 32.871 36.898v9.301c0 12.65-10.278 22.941-22.911 22.941h-102.15c-4.143 0-7.5 3.358-7.5 7.5s3.357 7.5 7.5 7.5h94.65v23.963h-228.747v-23.963h97.13c4.142 0 7.5-3.358 7.5-7.5s-3.358-7.5-7.5-7.5h-104.63c-12.649 0-22.94-10.291-22.94-22.941v-9.301c14.641-7.476 25.977-20.042 32.872-36.898h94.699c4.142 0 7.5-3.358 7.5-7.5s-3.358-7.5-7.5-7.5h-99.899c-3.212 0-6.067 2.045-7.101 5.086-5.045 14.845-18.967 39.748-55.518 39.748-27.673 0-58.624-25.072-58.624-58.626 0-32.327 26.299-58.626 58.624-58.626h359.494c32.342 0 58.653 26.299 58.653 58.626-.001 33.554-30.966 58.626-58.654 58.626z"/></g></g></svg>