<svg height="512pt" viewBox="0 0 512.01314 512" width="512pt" xmlns="http://www.w3.org/2000/svg"><path d="m494.945312 460.804688h-8.53125v-17.066407c-.019531-6.070312-3.273437-11.667969-8.535156-14.695312-.128906-139.511719-4.625-195.480469-7.140625-215.839844 8.824219-.722656 15.632813-8.074219 15.675781-16.933594v-17.066406c-.035156-1.691406-.320312-3.367187-.855468-4.972656.542968-1.109375.832031-2.324219.855468-3.558594v-42.667969h10.691407c7.019531-.003906 13.074219-4.929687 14.507812-11.800781 1.585938-6.925781-1.90625-14.015625-8.363281-16.980469-.097656-.046875-.199219-.089844-.300781-.128906l-230.023438-95.675781c-10.816406-4.546875-23.007812-4.546875-33.824219 0l-230.359374 95.804687c-6.457032 2.964844-9.949219 10.054688-8.363282 16.980469 1.4375 6.882813 7.511719 11.8125 14.542969 11.800781h10.691406v42.667969c.019531 1.234375.3125 2.449219.851563 3.558594-.53125 1.605469-.820313 3.28125-.851563 4.972656v17.066406c.042969 8.859375 6.855469 16.214844 15.683594 16.933594-2.515625 20.359375-7.015625 76.328125-7.152344 215.839844-5.257812 3.027343-8.511719 8.625-8.53125 14.695312v17.066407h-8.535156c-9.425781 0-17.0664062 7.640624-17.0664062 17.066406v17.066406c0 9.425781 7.6406252 17.066406 17.0664062 17.066406h477.867187c9.425782 0 17.066407-7.640625 17.066407-17.066406v-17.066406c0-9.425782-7.640625-17.066406-17.066407-17.066406zm-145.066406-34.132813c-.179687-137.769531-4.640625-193.222656-7.140625-213.46875 8.824219-.722656 15.632813-8.074219 15.675781-16.933594v-17.066406h42.664063v17.066406c.042969 8.859375 6.855469 16.214844 15.6875 16.933594-2.5 20.246094-6.964844 75.699219-7.152344 213.46875zm-119.464844 0c-.179687-137.769531-4.644531-193.222656-7.144531-213.46875 8.828125-.722656 15.636719-8.074219 15.675781-16.933594v-17.066406h34.132813v17.066406c.042969 8.859375 6.855469 16.214844 15.6875 16.933594-2.5 20.246094-6.964844 75.699219-7.152344 213.46875zm-128 0c-.179687-137.769531-4.644531-193.222656-7.144531-213.46875 8.828125-.722656 15.636719-8.074219 15.675781-16.933594v-17.066406h42.667969v17.066406c.042969 8.859375 6.855469 16.214844 15.683594 16.933594-2.5 20.246094-6.960937 75.699219-7.152344 213.46875zm-59.734374-247.46875h51.199218v17.066406h-51.199218zm15.761718 34.136719h19.625c2.210938 16.433594 7.050782 68.878906 7.230469 213.332031h-34.082031c.1875-144.539063 5.03125-196.96875 7.226562-213.332031zm163.4375-17.070313h-51.199218v-17.066406h51.199218zm-35.4375 17.070313h19.625c2.210938 16.433594 7.050782 68.878906 7.230469 213.332031h-34.082031c.1875-144.539063 5.03125-196.96875 7.226562-213.332031zm154.90625-17.070313h-51.203125v-17.066406h51.203125zm-35.441406 17.070313h19.628906c2.210938 16.433594 7.046875 68.878906 7.226563 213.332031h-34.082031c.1875-144.539063 5.035156-196.96875 7.226562-213.332031zm154.90625-17.070313h-42.667969v-17.066406h51.203125v17.066406zm-26.90625 17.070313h19.628906c2.210938 16.433594 7.046875 68.878906 7.226563 213.332031h-34.082031c.1875-144.539063 5.035156-196.96875 7.226562-213.332031zm-188.261719-194.195313c6.636719-2.765625 14.101563-2.765625 20.738281 0l220.644532 91.792969h-462.027344zm223.703125 108.859375v34.132813h-426.667968v-34.132813zm-426.667968 315.734375h426.667968v17.066407h-426.667968zm-25.601563 51.199219v-17.066406h477.867187v17.066406zm0 0"/><path d="m153.1875 93.871094h205.652344c4.066406-.003906 7.566406-2.875 8.359375-6.863282.796875-3.984374-1.328125-7.980468-5.082031-9.546874l-102.296876-42.546876c-1.039062-.433593-2.152343-.65625-3.277343-.65625h-1.058594c-1.125 0-2.238281.222657-3.277344.65625l-102.296875 42.546876c-3.753906 1.566406-5.882812 5.5625-5.085937 9.546874.796875 3.988282 4.296875 6.859376 8.363281 6.863282zm102.824219-42.070313 60.09375 25.003907h-120.183594zm0 0"/></svg>