<svg id="Capa_1" enable-background="new 0 0 512.002 512.002" height="512" viewBox="0 0 512.002 512.002" width="512" xmlns="http://www.w3.org/2000/svg"><g><path d="m487.334 324.016c-3.183-24.364-14.448-40.604-21.243-48.416-3.061-3.518-7.619-5.129-12.208-4.316-4.573.814-8.291 3.893-9.944 8.239l-12.336 32.427c-2.557 6.718.82 14.289 7.528 16.877 6.57 2.534 13.004 5.993 19.2 10.291-2.226 5.494-2.409 11.524-.656 17.035-7.034 6.944-15.155 11.555-21.089 14.308-6.691 3.104-13.887 4.678-21.387 4.678h-29.148l-8.752-23.873h9.532c11.249 0 20.4-9.151 20.4-20.4s-9.151-20.4-20.4-20.4h-11.721c-18.665-23.196-30.098-50.974-33.08-80.581-.415-4.121-4.084-7.118-8.214-6.711-4.121.415-7.125 4.093-6.71 8.214 2.88 28.597 12.922 55.648 29.242 79.078h-255.51c-18.189-28.768-27.787-61.919-27.787-96.142 0-50.57 21.297-98.795 58.545-132.916l219.776 44.375c-12.923 20.923-21.176 44.552-24.002 68.992-.476 4.115 2.474 7.836 6.589 8.312.293.034.583.05.871.05 3.756 0 6.999-2.817 7.44-6.639 2.788-24.104 11.363-47.349 24.875-67.531l7.242 1.462c11.038 2.232 21.8-4.896 24.034-15.959 2.233-11.052-4.906-21.802-15.96-24.034l-123.1-24.856v-45.18c0-11.249-9.151-20.4-20.4-20.4s-20.4 9.151-20.4 20.4v36.942l-88.62-17.894c-11.07-2.234-21.807 4.921-24.033 15.959-1.713 8.489 2.077 16.793 9.018 21.224-36.284 36.474-56.872 85.948-56.872 137.692 0 34.424 8.971 67.85 26.032 97.408-7.802 2.867-13.394 10.35-13.394 19.134 0 11.249 9.151 20.4 20.399 20.4h9.533l-8.752 23.873h-18.839c-26.949 0-32.444-31.191-32.674-32.571-.66-4.081-4.498-6.858-8.583-6.208-4.091.652-6.879 4.496-6.227 8.586 2.333 14.654 14.018 41.55 41.723 44.857 6.329 27.79-21.256 43.945-48.551 51.588-7.984 2.236-13.562 9.592-13.562 17.889 0 10.245 8.335 18.581 18.58 18.581h49.478l-12.695 23.02c-2 3.627-.682 8.189 2.945 10.189 3.629 2.001 8.189.68 10.189-2.945l16.69-30.264h29.316l-12.695 23.021c-2 3.627-.682 8.189 2.945 10.189 3.629 2.001 8.189.681 10.189-2.946l16.689-30.264h29.317l-12.695 23.021c-2 3.627-.682 8.189 2.945 10.189 3.629 2.001 8.189.681 10.189-2.946l16.689-30.264h29.316l-12.695 23.021c-2 3.627-.682 8.189 2.945 10.189 3.629 2.001 8.189.681 10.189-2.946l16.689-30.264h29.317l-12.695 23.021c-2 3.627-.682 8.189 2.945 10.189 3.629 2.001 8.189.681 10.189-2.946l16.689-30.264h29.317l-12.695 23.021c-2.759 5.003.885 11.123 6.561 11.123 2.644 0 5.207-1.401 6.574-3.88l16.689-30.264h29.316l-12.695 23.021c-2 3.627-.682 8.189 2.945 10.189 3.629 2.001 8.189.681 10.189-2.946l16.689-30.264h22.305c57.271 0 87.346-49.904 98.699-105.58 9.784-3.455 16.815-12.79 16.815-23.741.009-11.933-8.339-21.945-19.499-24.523zm-253.774-303.616c0-2.978 2.423-5.4 5.4-5.4s5.4 2.422 5.4 5.4v42.151c-3.636-.734-7.227-1.459-10.801-2.181v-39.97zm-112.95 37.975c.59-2.924 3.435-4.814 6.361-4.224 30.232 6.104 222.613 44.949 252.522 50.988 2.93.592 4.814 3.441 4.225 6.361-.592 2.929-3.44 4.815-6.361 4.226h-.001l-252.522-50.988c-2.926-.591-4.814-3.435-4.224-6.363zm325.679 257.154 10.512-27.633c5.558 7.061 13.066 19.494 15.559 37.253-1.404.555-3.103 1.423-4.482 2.328-6.931-4.914-14.167-8.919-21.589-11.948zm-355.2 20.736c-2.978 0-5.399-2.423-5.399-5.4s2.422-5.4 5.399-5.4h295.742c2.978 0 5.4 2.422 5.4 5.4s-2.423 5.4-5.4 5.4c-9.351 0-280.526 0-295.742 0zm153.272 15v23.873h-10.801v-23.873zm-25.801 0v23.873h-110.714l8.752-23.873zm-137.07 111.594h-57.75c-4.153 0-4.924-5.919-.974-7.025 10.82-3.029 27.521-9.039 40.643-19.685h32.811zm46.446 0h-29.316l14.73-26.71h29.316zm46.446 0h-29.317l14.73-26.71h29.317zm46.445 0h-29.316l14.73-26.71h29.316zm46.447 0h-29.317l14.73-26.71h29.317zm46.446 0h-29.317l14.73-26.71h29.317zm46.445 0h-29.316l14.73-26.71h29.316zm31.162 0h-14.033l14.73-26.71h54.531c-14.595 17.73-33.123 26.71-55.228 26.71zm65.464-41.711c-161.92 0-192.925 0-380.03 0 5.868-9.755 7.56-20.237 5.854-31.011h199.206c4.143 0 7.5-3.358 7.5-7.5s-3.357-7.5-7.5-7.5h-22.46v-23.873h101.962l8.752 23.873h-53.254c-4.143 0-7.5 3.358-7.5 7.5s3.357 7.5 7.5 7.5h98.379c9.56 0 19.138-2.099 27.699-6.07 6.567-3.046 15.412-8.032 23.5-15.503 2.168 1.665 5.301 3.311 8.21 4.152-3.161 14.424-8.598 32.275-17.818 48.432zm24.877-62.437c-5.641 0-10.173-4.637-10.173-10.173 0-5.696 4.693-10.173 10.173-10.173 5.61 0 10.174 4.564 10.174 10.173 0 5.667-4.631 10.173-10.174 10.173z"/></g></svg>