<svg id="Layer_1" enable-background="new 0 0 75 75" viewBox="0 0 75 75" xmlns="http://www.w3.org/2000/svg"><g id="Ancient_Statue"><g><path d="m20.6375904 19.9833775c-.1464844.4667969-.2592773 1.1923828-.0112305 2.0703125.4404297 1.5605469 1.8330078 2.9492188 4.0771484 4.0947266.9321289.59375 3.3515625 2.6103516 3.3515625 4.7832031v6.538084c0 .4140625.3359375.75.75.75s.75-.3359375.75-.75v-6.538084c0-3.4316406-3.8803711-5.9433594-4.1069336-6.0839844-1.8691406-.9560547-3.0332031-2.0498047-3.3671875-3.1630859-.2597656-.8662109.0703125-1.4648438.0786133-1.4804688.1826172-.2998047.1328125-.6855469-.1201172-.9296875-.862793-.8320313-1.2636719-1.6611328-1.1914063-2.4667969.0957642-1.0617075.9703369-1.9030161 1.409668-2.2625742.458477.3456669 1.2597523.7401123 1.652832.7401123.3300781 0 .6328125-.2197266.7231445-.5537109.1083984-.3994141-.1274414-.8115234-.5273438-.9199219-.7680664-.2080078-1.2138672-.6962891-1.2270508-.7109375-.0407104-.0467529-.0928345-.074707-.1414185-.1088257-.195488-2.0648384.944725-3.716362 2.680481-4.3648071.3881836-.1445313.5849609-.5771484.4399414-.9648438-.1450195-.3886719-.5766602-.5810547-.965332-.4394531-.6401367.2392578-1.84375.8320313-2.715332 2.1142578-1.0488281 1.5419922-1.0224609 3.1884766-.9013672 4.0732422-2.1910341 1.8201924-2.6817949 4.3188353-.6386717 6.5732432z"/><path d="m46.3856354 56.7441177c3.0119781-4.486145 5.0479507-9.8370705 5.8837891-14.4160156.1796875-.9814453.3164063-1.9814453.440918-2.9208984.1156883-.873188-.4255753-1.4906235-1.3354492-1.4921875-.9982224.00243-1.4722137.0058937-2.0600586-.0029297-.3803711.0009766-.9677734.1279297-1.3061523.8310547-1.0680771 2.2102661-2.297554 4.4060516-4.0004883 6.5722656-1.9450951 2.4737473-3.8338356 4.6578979-6.9067383 6.9550781-.331543.2480469-.3994141.7177734-.1513672 1.0498047.2475586.3320313.7177734.3994141 1.0498047.1513672 3.1340103-2.3431969 5.144001-4.6306458 7.1875-7.2285156 1.781868-2.2689819 3.0412636-4.5189095 4.1655273-6.8300781.2758713.0030403.3488617.0048828 1.8427734.0048828-.1147461.8603516-.2412109 1.7626953-.4018555 2.640625-.7922249 4.3454819-2.7246933 9.4881859-5.6538086 13.8496094-.0947266.1416016-.1518555.1445313-.203125.1464844-.6240234.0263672-1.2490234.0517578-1.8735352.0761719.6744194-.8967705 2.0118446-3.1094475 3.1088867-4.9101563.2167969-.3535156.1064453-.8144531-.246582-1.03125-.3520508-.2167969-.8144531-.1074219-1.0317459.2460938l-.5742111.9375c-2.5991936 4.2585068-2.193718 3.4798126-3.4267578 5.1113281-.3342628.4424934-.0171127 1.1952019.6533203 1.2021484.2098427-.0077896 1.7453575-.0580406 3.4550781-.1337891.3955078-.0166016.9570313-.1699219 1.3842774-.8085938z"/><path d="m38.7313385 58.6376724c.4116211-.0449219.7084961-.4160156.6630859-.8271484-.0458984-.4121094-.4121094-.7216797-.828125-.6630859-5.079998.5590973-11.0342751-1.8046913-13.0122051-4.4619141 4.1729774-1.8006134 6.4155064-2.7135239 10.6909161-5.6337891 6.592144-4.5017548 9.2970352-8.3705292 9.4052734-8.2236328.4047852.1025391.8095703-.1416016.9111328-.5439453.1015625-.4013672-.1416016-.8085938-.5429688-.9111328-.597168-.1523438-1.1235352.0146484-1.5625.4931641l-.2988281.3242188c-2.3603897 2.565712-4.7019043 4.8536148-8.7578125 7.6230469-4.202055 2.8702202-6.3923187 3.7478142-10.5493145 5.5419922-.9398212.4090996-1.1702404 1.313797-.6020508 2.0908203 2.7712498 3.8046874 9.7796574 5.7158393 14.4833966 5.1914061z"/><path d="m17.8138599 41.1122818c-.2626953.4140625-.7021484 1.1064453-.5351563 1.9814453.5191402 2.7157364 2.4958477 5.0497513 4.6254883 6.8134766.4172688.3436356.8510666.4594536 1.3662109.2490234 7.1853466-2.9491425 13.4184513-7.3955688 17.1127911-11.3466797l.4375-.4648438c.2871094-.2988281.2773438-.7734375-.0219727-1.0605469-.2978516-.2871094-.7739258-.2773438-1.0600586.0214844-.1514091.1297684-5.771225 6.8088875-16.9174786 11.4130859-1.8248768-1.5195236-3.6238441-3.5809517-4.0688477-5.90625-.0473633-.2480469.0678711-.4863281.3276367-.8955078 1.1115971-1.7493973 2.9999409-1.7689209 5.2368164-2.0175781.4116211-.0498047.7050781-.4228516.6557617-.8339844-.0488281-.4111328-.4213867-.6914063-.8334961-.65625-1.1330853.1265678-2.0947533.2220726-2.9829102.4189453-1.4394528.319336-2.5952145 1.1093751-3.3422849 2.2841798z"/><path d="m53.0487213 51.3622818c2.3219032-1.9024963 3.9735603-4.4927711 4.652832-6.7978516-.034584-.1000137.6823959-1.6479492-2.1552734-3.5244141-.5078125-.3349609-.9150391-.28125-1.1665039-.1748047-.7113113.2993584-.7059593 1.1563568-.7573242 1.2753906-.5564613 2.8626938-1.3550262 5.4417534-2.3740234 7.8710938-.5212174 1.2478676.7996063 2.1713181 1.8002929 1.350586zm2.022461-8.8134766c.4350586.3496094.8007813.7753906 1.0917969 1.2685547.0371094.0634766.0727539.171875.1103516.2880859-.0477982.1001587-.710659 2.6719856-3.0913086 5.1035156.7874411-2.0919837 1.4302024-4.3036307 1.8891601-6.6601562z"/><path d="m37.0340729 14.3329859c.1894531.3681641.6411133.5146484 1.0097656.3242188 1.4960213-.7665548 3.2253876-1.0106173 4.8891602-.578125.4311523.1103516.7944336.4130859.9970703.8310547l4.0913086 8.4052744c.0680428.1829548-.0671349.3720703-.2578125.3720703h-1.456543c-.3798828 0-.7001953.2841797-.7446289.6621094l-.6328125 5.3388672-.3164063 1.0673828c-.1816406.6123047-.7910156 1.0048828-1.4262695.90625l-5.7441406-.8730469c-.3173828-.0488281-.6030273-.2119141-.8051758-.4599609l-3.0820313-3.7919922c-.2617188-.3222656-.7338867-.3720703-1.0551758-.109375-.3212891.2617188-.3701172.7333984-.1088867 1.0546875l3.0820313 3.7929688c.4379883.5380859 1.0571289.8915997 1.7436523.9960918 6.1225319.9203148 5.8013153.9052734 6.1601563.9052734 1.2133789 0 2.3208008-.8027344 2.6743164-1.9951153.3397217-1.158886.3472214-1.1426506.3598633-1.2539063l.5620117-4.7402344h.7900391c1.1896706 0 2.1254883-1.1702366 1.6342773-2.4628906l-4.1186523-8.4697275c-.3950195-.8144531-1.1137695-1.4072266-1.9702148-1.6279297-1.9034462-.4965515-3.996727-.3059216-5.949707.6962891-.3686525.1884765-.5141603.640625-.3251954 1.0097656z"/><path d="m41.6932526 18.9941196c-.9331055-.2636719-2.0283203.0419922-3.2602539.9130859-.3378906.2402344-.4179688.7080078-.1782227 1.0458984.2392578.3378906.7080078.4160156 1.0454102.1787109.8061523-.5712891 1.5048828-.8183594 1.9609375-.7001953.3325195.0869141.4750977.3623047.4887695.3896484.1651993.3762817.5997887.5463963.9755859.390625.3823242-.1601563.5625-.5996094.402832-.9814453-.040039-.095703-.4204101-.9453123-1.4350585-1.236328z"/><path d="m40.1317291 27.0839634c0 .4140625.3359375.75.75.75h2.3217773c.4140625 0 .75-.3359375.75-.75s-.3359375-.75-.75-.75h-2.3217773c-.4140625 0-.75.3359375-.75.75z"/><path d="m51.2918854 67.1269302c-.6567383-1.1191406-2.015625-2.5048828-4.7612305-2.7529297-.3032227-.0273438-.5410156-.2871094-.5410156-.5917969v-3.0576172c0-.4140625-.3359375-.75-.75-.75s-.75.3359375-.75.75v3.0576172c0 1.0908203.8193359 1.9873047 1.90625 2.0859375 1.6943359.1533203 2.90625.8320313 3.6020508 2.0175781.2207909.3765488-.0853539.8642578-.5371094.8642578h-21.900877c-.4162312 0-.7243156-.4218826-.5644531-.8027344.6635742-1.5791016 1.859375-2.4023438 3.5546875-2.4482422 1.1606445-.03125 2.0698223-.9521484 2.0698223-2.0966797v-2.6777344c0-.4140625-.3359375-.75-.7499981-.75-.4140625 0-.75.3359375-.75.75v2.6777344c0 .3261719-.2675781.5878906-.609375.5966797-1.315918.0361328-3.7021484.5205078-4.8979492 3.3671875-.5729446 1.3641586.4543953 2.8837891 1.9472656 2.8837891h21.900877c1.5878982.0000001 2.6488571-1.7265929 1.8310547-3.1230468z"/><path d="m34.101944 66.694313h8.8208008c.4140625 0 .75-.3359375.75-.75s-.3359375-.75-.75-.75h-8.8208008c-.4140625 0-.75.3359375-.75.75s.3359375.75.75.75z"/><path d="m29.0218678 20.2743931c.2734375-.1191406.6933594.0449219.8212891.1132813.3608398.1982422.815918.0673828 1.015625-.2939453.2016602-.3623047.0712891-.8183594-.2910156-1.0195313-.1118164-.0634766-1.1323242-.6005859-2.1230469-.1845703-.4287109.1796875-.9990234.6083984-1.2788086 1.625-.0141602.0517578-.0229492.1054688-.0258789.1591797-.0043945.0839844-.0976563 2.0839844 1.1323242 3.3623047.652832.6787109 1.527832 1.0224609 2.6025391 1.0224609.5297451 0 .8229485-.3677826.8168945-.7626953-.0063477-.4101563-.3408203-.7382813-.75-.7382813-.003418 0-.0078125 0-.0117188 0-.7021484.0019531-1.1987305-.1708984-1.5722656-.5566406-.6743164-.6962891-.7207031-1.8652344-.7211914-2.171875.0708007-.2216797.1909179-.4716797.3852539-.5546875z"/><path d="m44.2332916 11.5185328c.2236328 0 .4448242-.0996094.5927734-.2900391.9326172-1.2001953 1.0444336-2.9521484.2729492-4.2607422-1.1668472-1.9785676-4.3584747-2.5379386-6.1875-1.1767578-.3325195.2470703-.4013672.7167969-.1538086 1.0498047.2480469.3310547.7172852.4023438 1.0493164.1533203 1.1544647-.8591819 3.3119011-.4318862 4 .7353516.4594727.7792969.3896484 1.8642578-.1655273 2.5791016-.3837089.4943942-.0264396 1.2099609.5917969 1.2099609z"/><path d="m26.4496021 11.0907984c.0184479.4481792.4222984.7527962.7797852.71875.4140625-.0166016.7358398-.3652344.7192383-.7792969-.1929874-4.7573266 6.8101215-6.5914612 9.2158184-2.5673828.2124023.3564453.6733398.4707031 1.0283203.2587891.3554688-.2119141.4716797-.6728516.2587891-1.0283203-3.1893998-5.3354948-12.2590581-2.9474249-12.0019513 3.3974609z"/></g></g></svg>