<svg id="Capa_1" enable-background="new 0 0 512 512" height="512" viewBox="0 0 512 512" width="512" xmlns="http://www.w3.org/2000/svg"><g><path d="m489.075 246.701c12.832-12.831 20.958-29.846 22.883-47.91.24-2.254-.552-4.495-2.155-6.098s-3.848-2.393-6.098-2.155c-18.063 1.924-35.079 10.051-47.91 22.883-2.949 2.949-5.636 6.127-8.07 9.48-.661-18.008-3.802-35.615-9.271-52.406 13.595-10.583 23.499-25.414 28.004-42.06 4.741-17.518 3.319-36.319-4.004-52.943-.914-2.074-2.716-3.624-4.904-4.216s-4.526-.163-6.361 1.167c-14.708 10.661-25.42 26.179-30.161 43.696-1.089 4.024-1.838 8.117-2.279 12.235-6.529-10.417-14.101-20.264-22.661-29.405-5.359-19.391-17.273-36.534-33.578-48.29-16.371-11.804-36.503-17.7-56.671-16.596-2.263.124-4.349 1.264-5.674 3.103s-1.749 4.177-1.151 6.364c5.327 19.489 17.276 36.723 33.648 48.526 15.074 10.869 33.33 16.727 51.875 16.727.069 0 .138-.003.208-.003 7.82 8.298 14.754 17.232 20.751 26.682-3.626-1.598-7.372-2.945-11.222-3.987-17.517-4.74-36.32-3.319-52.943 4.004-2.074.914-3.624 2.716-4.216 4.904s-.163 4.526 1.167 6.361c10.661 14.708 26.179 25.419 43.696 30.161 6.794 1.839 13.78 2.75 20.759 2.75 7.397 0 14.779-1.049 21.917-3.081 4.659 14.735 7.385 30.137 8.049 45.879-2.352-3.195-4.933-6.231-7.756-9.054-12.832-12.832-29.847-20.958-47.91-22.883-2.256-.243-4.495.551-6.098 2.155-1.603 1.603-2.395 3.844-2.155 6.098 1.924 18.063 10.051 35.078 22.883 47.91 2.967 2.967 6.179 5.712 9.547 8.16 3.351 2.435 8.042 1.691 10.476-1.659 2.435-3.351 1.692-8.042-1.659-10.476-2.735-1.987-5.345-4.218-7.758-6.631-8.107-8.107-13.775-17.912-16.69-28.756 10.844 2.915 20.649 8.583 28.757 16.69 8.354 8.354 14.105 18.515 16.936 29.754-2.727 20.256-8.888 39.438-17.889 56.932-.463-3.983-1.21-7.94-2.279-11.831-4.808-17.499-15.578-32.976-30.327-43.581-1.84-1.324-4.181-1.744-6.365-1.143-2.186.601-3.982 2.157-4.888 4.234-7.26 16.651-8.61 35.459-3.802 52.958 3.845 13.995 11.512 26.69 21.971 36.64-10.397 11.598-22.297 21.818-35.395 30.354 1.531-3.604 2.815-7.321 3.8-11.137 4.538-17.571 2.897-36.355-4.618-52.893-.938-2.063-2.758-3.592-4.953-4.159-2.195-.566-4.527-.109-6.347 1.24-14.583 10.831-25.114 26.472-29.652 44.043-3.621 14.021-3.296 28.811.797 42.619-17.415 5.75-36.013 8.873-55.329 8.873s-37.915-3.123-55.329-8.873c4.093-13.808 4.418-28.599.797-42.619-4.538-17.571-15.068-33.212-29.652-44.043-1.819-1.351-4.152-1.806-6.347-1.24-2.194.567-4.015 2.095-4.953 4.159-7.515 16.538-9.155 35.322-4.618 52.893.985 3.816 2.27 7.533 3.8 11.137-13.097-8.535-24.998-18.756-35.395-30.354 10.458-9.95 18.126-22.644 21.971-36.64 4.808-17.499 3.458-36.306-3.802-52.958-.906-2.078-2.703-3.634-4.888-4.234-2.186-.6-4.526-.18-6.365 1.143-14.749 10.605-25.519 26.082-30.327 43.58-1.069 3.891-1.816 7.849-2.279 11.832-6.917-13.443-12.151-27.886-15.447-43.043 13.992-3.482 26.916-10.718 37.167-20.969 12.832-12.832 20.958-29.847 22.883-47.91.24-2.254-.552-4.495-2.155-6.098s-3.845-2.393-6.098-2.155c-18.063 1.924-35.078 10.051-47.91 22.883-2.823 2.823-5.404 5.859-7.756 9.054.865-20.516 5.232-40.455 12.814-59.091 8.055-8.357 18.114-14.318 29.533-17.409 11.067-2.995 22.392-3.031 33.249-.16-7.926 7.954-17.723 13.636-28.79 16.632-3.55.961-7.191 1.624-10.821 1.969-4.124.393-7.147 4.054-6.755 8.178.37 3.882 3.636 6.789 7.458 6.789.238 0 .479-.011.72-.034 4.471-.426 8.952-1.241 13.317-2.423 17.517-4.742 33.035-15.453 43.696-30.161 1.33-1.835 1.759-4.173 1.167-6.361s-2.142-3.99-4.216-4.904c-16.623-7.324-35.426-8.745-52.943-4.004-3.85 1.042-7.596 2.389-11.222 3.987 5.998-9.45 12.931-18.384 20.751-26.682.069 0 .138.003.208.003 18.544 0 36.802-5.858 51.875-16.727 16.372-11.804 28.321-29.038 33.648-48.526.598-2.187.175-4.525-1.151-6.364s-3.411-2.979-5.674-3.103c-20.175-1.102-40.3 4.792-56.671 16.596-16.305 11.756-28.219 28.899-33.578 48.29-8.56 9.141-16.132 18.987-22.661 29.404-.442-4.118-1.19-8.211-2.279-12.235-4.741-17.517-15.453-33.035-30.161-43.696-1.834-1.33-4.173-1.759-6.361-1.167s-3.99 2.142-4.904 4.216c-7.324 16.624-8.746 35.425-4.004 52.943 4.505 16.645 14.409 31.477 28.004 42.06-5.469 16.79-8.611 34.398-9.271 52.406-2.434-3.352-5.121-6.531-8.07-9.48-12.831-12.832-29.846-20.958-47.91-22.883-2.257-.243-4.495.551-6.098 2.155-1.603 1.603-2.395 3.844-2.155 6.098 1.924 18.063 10.051 35.079 22.883 47.91 12.195 12.195 28.171 20.129 45.231 22.539 3.611 17.335 9.571 33.817 17.527 49.103-3.743-1.691-7.618-3.11-11.604-4.206-17.5-4.808-36.307-3.458-52.958 3.802-2.078.906-3.634 2.703-4.234 4.888-.601 2.186-.181 4.525 1.143 6.366 10.604 14.748 26.081 25.519 43.581 30.327 6.885 1.892 13.973 2.83 21.052 2.83 10.007 0 19.99-1.898 29.367-5.604 11.823 13.42 25.478 25.187 40.585 34.888-4.164.391-8.306 1.097-12.383 2.149-17.57 4.538-33.212 15.068-44.042 29.652-1.352 1.819-1.808 4.153-1.241 6.347s2.095 4.015 4.159 4.953c10.409 4.73 21.708 7.133 33.034 7.133 6.669 0 13.348-.833 19.859-2.515 16.714-4.317 31.674-14.064 42.416-27.557 15.049 5.113 30.933 8.402 47.385 9.611l-31.985 44.779c-2.408 3.371-1.627 8.055 1.744 10.462 3.371 2.409 8.055 1.627 10.462-1.744l33.977-47.568 33.978 47.569c1.464 2.049 3.769 3.142 6.109 3.142 1.509 0 3.032-.454 4.353-1.398 3.371-2.408 4.151-7.092 1.744-10.462l-31.985-44.779c16.453-1.209 32.336-4.498 47.385-9.611 10.742 13.493 25.702 23.241 42.416 27.557 6.513 1.682 13.189 2.515 19.859 2.515 11.325 0 22.625-2.403 33.034-7.133 2.063-.938 3.592-2.758 4.159-4.953s.111-4.528-1.241-6.347c-10.831-14.584-26.472-25.114-44.043-29.652-4.076-1.053-8.219-1.758-12.382-2.149 15.107-9.7 28.763-21.468 40.585-34.888 9.378 3.707 19.359 5.604 29.367 5.604 7.079 0 14.168-.938 21.053-2.83 17.499-4.809 32.977-15.579 43.58-30.327 1.323-1.84 1.743-4.18 1.143-6.366-.601-2.185-2.157-3.982-4.234-4.888-16.651-7.259-35.458-8.609-52.958-3.802-3.987 1.095-7.861 2.515-11.604 4.206 7.956-15.286 13.916-31.768 17.527-49.103 17.06-2.411 33.035-10.345 45.23-22.54zm-103.179-84.253c-11.067-2.996-20.864-8.678-28.791-16.632 10.856-2.871 22.182-2.835 33.249.16 11.067 2.996 20.863 8.678 28.79 16.632-10.854 2.87-22.18 2.835-33.248-.16zm-5.707 144.93c-3.038-11.056-3.116-22.381-.287-33.248 7.984 7.896 13.704 17.671 16.741 28.727s3.116 22.38.287 33.248c-7.984-7.897-13.703-17.672-16.741-28.727zm-55.134 51.813c2.867-11.102 8.435-20.964 16.297-28.981 2.996 10.822 3.092 22.147.226 33.249-2.867 11.101-8.435 20.963-16.296 28.98-2.997-10.822-3.093-22.148-.227-33.248zm-154.407-28.982c7.862 8.018 13.43 17.88 16.297 28.981s2.77 22.426-.226 33.248c-7.862-8.018-13.43-17.88-16.296-28.981s-2.771-22.426.225-33.248zm-55.291-27.353c3.038-11.055 8.757-20.83 16.741-28.726 2.829 10.867 2.751 22.191-.287 33.248-3.038 11.055-8.757 20.831-16.741 28.727-2.829-10.868-2.751-22.193.287-33.249zm-17.697-78.828c8.107-8.107 17.913-13.775 28.757-16.69-2.915 10.844-8.583 20.649-16.69 28.756s-17.912 13.775-28.757 16.69c2.915-10.844 8.583-20.648 16.69-28.756zm60.603-161.18c11.023-7.948 23.631-12.588 36.928-13.659-5.216 12.278-13.602 22.774-24.625 30.722-11.024 7.948-23.631 12.589-36.928 13.659 5.216-12.278 13.602-22.775 24.625-30.722zm-98.242 61.67c-2.995-11.067-3.03-22.393-.16-33.249 7.954 7.926 13.636 17.723 16.632 28.79 2.995 11.067 3.03 22.392.16 33.249-7.955-7.927-13.637-17.724-16.632-28.79zm-26.49 111.577c-8.107-8.107-13.775-17.912-16.69-28.756 10.844 2.915 20.649 8.583 28.756 16.69s13.775 17.912 16.69 28.756c-10.843-2.915-20.648-8.583-28.756-16.69zm32.053 108.962c-11.056-3.038-20.831-8.757-28.727-16.742 10.866-2.83 22.19-2.751 33.248.287 11.055 3.038 20.831 8.757 28.727 16.741-10.867 2.829-22.192 2.752-33.248-.286zm82.666 79.773c-11.1 2.867-22.425 2.77-33.248-.226 8.018-7.862 17.88-13.43 28.981-16.297 11.102-2.867 22.427-2.77 33.249.226-8.019 7.861-17.881 13.43-28.982 16.297zm248.749-.227c-10.823 2.997-22.147 3.092-33.248.226-11.101-2.867-20.963-8.435-28.981-16.297 10.822-2.996 22.148-3.092 33.248-.226 11.1 2.867 20.963 8.436 28.981 16.297zm69.403-200.575c8.107-8.107 17.912-13.775 28.756-16.69-2.915 10.844-8.583 20.649-16.69 28.756s-17.912 13.775-28.756 16.69c2.916-10.844 8.584-20.648 16.69-28.756zm-30.894-103.969c2.995-11.067 8.677-20.864 16.631-28.79 2.871 10.856 2.835 22.181-.16 33.249-2.995 11.067-8.677 20.864-16.631 28.79-2.87-10.857-2.836-22.182.16-33.249zm-94.074-40.148c-11.023-7.948-19.409-18.444-24.625-30.722 13.296 1.071 25.906 5.712 36.928 13.659 11.023 7.948 19.409 18.444 24.625 30.722-13.295-1.071-25.905-5.712-36.928-13.659zm100.461 248.691c11.057-3.038 22.38-3.116 33.248-.287-7.896 7.984-17.671 13.704-28.727 16.742s-22.38 3.115-33.248.286c7.897-7.985 17.672-13.704 28.727-16.741z"/></g></svg>