<svg id="Layer_1" enable-background="new 0 0 64 64" viewBox="0 0 64 64" xmlns="http://www.w3.org/2000/svg"><g><g><g><g><g><g><g><path d="m39.48 19.99c-2.12 0-3.85-1.73-3.85-3.85s1.73-3.85 3.85-3.85 3.85 1.73 3.85 3.85-1.73 3.85-3.85 3.85zm0-5.76c-1.05 0-1.91.86-1.91 1.91s.86 1.91 1.91 1.91 1.91-.86 1.91-1.91-.86-1.91-1.91-1.91z"/></g></g><g><g><path d="m29.02 18.64c-.3 0-.6-.14-.79-.41-1.74-2.45-3.43-3.43-4.54-3.82-.04-.01-.07-.03-.11-.05-.05-.02-.1-.04-.16-.06l-.1-.03c-.05-.01-.13-.03-.17-.05-.07-.03-.15-.05-.22-.06-2.27-.47-4.35-1.33-5.9-2.03l-.66-.31c-2.04-1.15-3.28-2.66-3.75-4.53-.87-3.4 1.16-6.71 1.24-6.85.18-.29.51-.47.86-.46.35.01.66.21.82.52.48.92 1.97 2.45 4.19 4.3.98.81 2.09 1.48 3.32 2.01 7.05 3.03 8.85 9.07 9.04 9.75.14.52-.17 1.05-.68 1.19-.52.14-1.05-.17-1.19-.68-.16-.59-1.72-5.8-7.93-8.47-1.39-.6-2.67-1.37-3.79-2.3-1.59-1.33-2.8-2.48-3.63-3.44-.38 1.04-.73 2.52-.36 3.96.34 1.34 1.27 2.44 2.76 3.28l.58.27c1.45.65 3.4 1.46 5.46 1.89.14.02.29.06.44.12.09.02.18.05.27.07.13.04.26.08.38.14 1.37.49 3.41 1.68 5.42 4.51.31.44.21 1.04-.23 1.35-.17.13-.37.19-.57.19z"/></g><g><path d="m33.36 18.64c-.19 0-.39-.06-.56-.18-.44-.31-.54-.92-.23-1.35 2.02-2.83 4.06-4.01 5.43-4.51.08-.04.17-.07.25-.09.1-.04.24-.09.4-.12.15-.05.3-.09.45-.12 2.04-.42 3.99-1.23 5.45-1.89l.64-.3c1.42-.8 2.35-1.91 2.69-3.24.37-1.44.03-2.92-.36-3.96-.83.97-2.04 2.12-3.63 3.44-1.13.93-2.4 1.71-3.8 2.3-6.21 2.67-7.77 7.88-7.93 8.47-.14.52-.67.83-1.19.68-.52-.14-.82-.67-.68-1.19.18-.68 1.99-6.72 9.04-9.75 1.23-.52 2.34-1.2 3.32-2.01 2.22-1.85 3.7-3.38 4.18-4.3.17-.31.49-.51.84-.52s.68.16.86.46c.09.14 2.11 3.44 1.24 6.85-.48 1.87-1.72 3.39-3.69 4.5l-.72.34c-1.57.7-3.64 1.57-5.89 2.03-.09.02-.17.04-.24.07s-.14.04-.22.05c0 0-.04.02-.07.03-.02.01-.08.03-.1.04-.04.02-.11.05-.15.06-1.11.39-2.79 1.37-4.54 3.82-.19.25-.49.39-.79.39z"/></g><g><path d="m22.9 19.99c-2.12 0-3.85-1.73-3.85-3.85s1.73-3.85 3.85-3.85 3.85 1.73 3.85 3.85-1.73 3.85-3.85 3.85zm0-5.76c-1.05 0-1.91.86-1.91 1.91s.86 1.91 1.91 1.91 1.91-.86 1.91-1.91-.85-1.91-1.91-1.91z"/></g></g></g><g><path d="m31.19 26.49c-.28 0-.55-.13-.74-.34-.57-.67-3.42-4.12-3.42-6.13 0-2.29 1.86-4.16 4.16-4.16 2.29 0 4.16 1.86 4.16 4.16 0 2.01-2.85 5.46-3.42 6.13-.19.21-.46.34-.74.34zm0-8.69c-1.22 0-2.22.99-2.22 2.22 0 .77 1.15 2.56 2.22 3.96 1.17-1.52 2.22-3.24 2.22-3.96 0-1.23-1-2.22-2.22-2.22z"/></g></g><g><g><g><path d="m47.46 43.72c-.27 0-.53-.11-.71-.31-.22-.24-5.36-5.87-5.36-12.97s5.14-12.73 5.36-12.97c.37-.4 1.06-.4 1.42 0 .22.24 5.36 5.87 5.36 12.97s-5.14 12.73-5.36 12.97c-.19.2-.44.31-.71.31zm0-24.06c-1.35 1.75-4.13 5.97-4.13 10.79 0 4.84 2.78 9.04 4.13 10.79 1.35-1.75 4.13-5.97 4.13-10.79 0-4.84-2.79-9.04-4.13-10.79z"/></g></g></g><g><g><g><path d="m15.02 43.72c-.27 0-.53-.11-.71-.31-.22-.24-5.36-5.87-5.36-12.97s5.14-12.73 5.36-12.97c.37-.4 1.06-.4 1.42 0 .22.24 5.36 5.87 5.36 12.97s-5.14 12.73-5.36 12.97c-.18.2-.44.31-.71.31zm0-24.06c-1.35 1.75-4.13 5.97-4.13 10.79 0 4.84 2.78 9.04 4.13 10.79 1.35-1.75 4.13-5.97 4.13-10.79 0-4.84-2.78-9.04-4.13-10.79z"/></g></g><g><path d="m22.4 8.57c-.28 0-.57-.12-.76-.36-.34-.42-.27-1.03.15-1.36 4.59-3.69 8.78-3.62 9.45-3.59.65-.04 4.83-.1 9.41 3.56.42.33.49.94.15 1.36s-.94.49-1.36.15c-4.24-3.39-8.09-3.14-8.12-3.14-.05 0-.11 0-.16 0-.04 0-3.9-.25-8.15 3.16-.19.15-.4.22-.61.22z"/></g><g><path d="m47.46 19.1c-.38 0-.74-.22-.89-.6-.99-2.37-2.15-4.46-3.43-6.22-.32-.43-.22-1.04.21-1.36s1.04-.22 1.35.21c1.38 1.89 2.61 4.11 3.66 6.62.21.49-.02 1.06-.52 1.27-.13.06-.26.08-.38.08z"/></g><g><path d="m15.02 19.1c-.13 0-.25-.02-.37-.08-.49-.21-.73-.77-.52-1.27 1.02-2.46 2.24-4.67 3.63-6.58.31-.43.92-.53 1.35-.22s.53.92.22 1.35c-1.3 1.79-2.44 3.88-3.41 6.19-.17.39-.53.61-.9.61z"/></g></g><g><path d="m31.18 47.12c-.28 0-.55-.12-.74-.34l-11.29-13.21c-.35-.41-.3-1.02.11-1.37s1.02-.3 1.37.11l10.56 12.35 10.66-12.36c.35-.41.96-.45 1.37-.1s.45.96.1 1.37l-11.4 13.21c-.19.22-.45.34-.74.34z"/></g><g><path d="m31.14 64c-.2 0-.4-.06-.57-.18-1.48-1.07-2.85-3-4.17-4.88-.49-.7-.98-1.39-1.45-2-.33-.42-.25-1.03.17-1.36s1.03-.25 1.36.17c.49.63.99 1.34 1.5 2.07 1.04 1.48 2.11 2.99 3.15 3.96 1.03-.95 2.1-2.46 3.14-3.92.52-.74 1.04-1.46 1.55-2.11.33-.42.94-.5 1.36-.17s.5.94.17 1.36c-.49.63-.99 1.33-1.5 2.04-1.32 1.86-2.69 3.78-4.16 4.83-.15.13-.35.19-.55.19z"/></g><g><path d="m41.53 49.99c-.17 0-.34-.04-.5-.14-.46-.28-.61-.87-.33-1.33l1-1.66c.81-1.43 2.06-3.7 3.32-6.33l.05-.11c.15-.34.49-.59.89-.59.54 0 .97.43.97.96 0 .15-.03.31-.1.44l-.06.13c-1.28 2.68-2.55 5-3.39 6.47l-1.01 1.68c-.19.31-.51.48-.84.48z"/></g><g><path d="m20.91 49.99c-.34 0-.66-.17-.84-.49l-1.22-2.12c-1.82-3.34-3.16-6.19-3.17-6.22-.23-.49-.02-1.06.47-1.29.48-.23 1.06-.02 1.29.47.01.03 1.32 2.82 3.11 6.09l1.21 2.1c.27.46.11 1.06-.36 1.32-.16.1-.33.14-.49.14z"/></g></g></g><g><g><g><g><g><path d="m47.7 57.32h-32.01c-1.09 0-1.98-.89-1.98-1.98v-5.3c0-1.09.89-1.98 1.98-1.98h32.01c.54 0 .97.43.97.97v7.32c0 .53-.44.97-.97.97zm-32.01-7.33-.04 5.34 31.08.04v-5.38z"/></g><g><path d="m47.69 57.32c-.34 0-.66-.17-.84-.49-.27-.46-.11-1.06.36-1.32l4.92-2.82-4.92-2.82c-.47-.27-.63-.86-.36-1.32s.86-.63 1.32-.36l6.39 3.66c.3.17.49.49.49.84s-.19.67-.49.84l-6.39 3.66c-.15.09-.31.13-.48.13z"/></g></g></g></g><g><path d="m19.34 57.32c-.54 0-.97-.43-.97-.97v-7.33c0-.54.43-.97.97-.97s.97.43.97.97v7.33c0 .53-.43.97-.97.97z"/></g></g></g></svg>