<svg id="Capa_1" enable-background="new 0 0 512 512" height="512" viewBox="0 0 512 512" width="512" xmlns="http://www.w3.org/2000/svg"><g><path d="m436.837 180.295c-20.388-10.222-57.78-34.311-79.136-80.794-7.885-17.18-12.716-35.48-14.404-54.501h3.238c12.406 0 22.5-10.093 22.5-22.5s-10.093-22.5-22.499-22.5h-181c-12.406 0-22.5 10.093-22.5 22.5s10.094 22.5 22.5 22.5h3.238c-1.688 19.022-6.519 37.321-14.403 54.499-21.356 46.485-58.749 70.575-79.137 80.796-3.333 1.427-4.539 5.448-4.135 10.123 0 29.707 3.066 59.124 9.019 87.83.039.229.088.454.146.676 18.055 68.043 42.858 129.86 88.904 185.744-13.831 5.526-23.633 19.051-23.633 34.831 0 6.893 5.607 12.5 12.5 12.5h196c6.893 0 12.5-5.607 12.5-12.5 0-15.78-9.802-29.305-23.633-34.831 45.369-55.278 70.77-117.402 88.904-185.744.059-.222.108-.447.146-.676 5.952-28.706 9.019-58.124 9.019-87.83.001-3.169.281-7.91-4.134-10.123zm-271.301-150.295c-4.136 0-7.5-3.364-7.5-7.5s3.364-7.5 7.5-7.5h181c4.136 0 7.5 3.364 7.5 7.5s-3.364 7.5-7.5 7.5zm2.467 75.758c3.544-7.723 6.516-15.653 8.923-23.756h31.562c4.143 0 7.5-3.358 7.5-7.5s-3.357-7.5-7.5-7.5h-27.806c1.484-7.222 2.531-14.563 3.137-22.002h144.432c.607 7.439 1.654 14.779 3.138 22.002h-87.902c-4.143 0-7.5 3.358-7.5 7.5s3.357 7.5 7.5 7.5h91.658c2.407 8.104 5.379 16.035 8.924 23.759 16.332 35.548 41.213 59.047 62.255 73.739h-300.577c21.042-14.692 45.923-38.191 62.256-73.742zm183.395 391.242h-190.725c1.248-11.234 10.801-20 22.362-20h146c11.562 0 21.115 8.766 22.363 20zm27.588-114.188h-35.892c-4.143 0-7.5 3.358-7.5 7.5s3.357 7.5 7.5 7.5h27.713c-12.948 22.629-28.043 44.14-45.205 64.188h-139.133c-17.162-20.048-32.256-41.559-45.205-64.188h166.83c4.143 0 7.5-3.358 7.5-7.5s-3.357-7.5-7.5-7.5h-175.009c-3.27-6.3-6.386-12.673-9.328-19.124h264.558c-2.942 6.451-6.059 12.824-9.329 19.124zm15.808-34.124h-277.517c-8.516-20.793-15.366-42.254-20.438-64.188h318.394c-5.073 21.934-11.923 43.395-20.439 64.188zm23.605-79.188h-58.644v-45h36.218v16.52h-13.718c-4.143 0-7.5 3.358-7.5 7.5s3.357 7.5 7.5 7.5h17.218c6.341 0 11.5-5.159 11.5-11.5v-23.52c0-6.341-5.159-11.5-11.5-11.5h-43.218c-6.341 0-11.5 5.159-11.5 11.5v48.5h-66.219v-45h36.219v16.52h-13.719c-4.143 0-7.5 3.358-7.5 7.5s3.357 7.5 7.5 7.5h17.219c6.341 0 11.5-5.159 11.5-11.5v-23.52c0-6.341-5.159-11.5-11.5-11.5h-43.219c-6.341 0-11.5 5.159-11.5 11.5v48.5h-66.219v-45h36.219v16.52h-13.719c-4.143 0-7.5 3.358-7.5 7.5s3.357 7.5 7.5 7.5h17.219c6.341 0 11.5-5.159 11.5-11.5v-23.52c0-6.341-5.159-11.5-11.5-11.5h-43.219c-6.341 0-11.5 5.159-11.5 11.5v48.5h-66.218v-45h36.218v16.52h-13.718c-4.143 0-7.5 3.358-7.5 7.5s3.357 7.5 7.5 7.5h17.218c6.341 0 11.5-5.159 11.5-11.5v-23.52c0-6.341-5.159-11.5-11.5-11.5h-43.218c-6.341 0-11.5 5.159-11.5 11.5v48.5h-7.427c-4.741-24.58-7.307-49.672-7.554-75h339.834c-.246 25.328-2.812 50.42-7.553 75z"/></g></svg>